<?xml version="1.0" encoding="UTF-8" standalone="no"?>
<svg xmlns:ffdec="https://www.free-decompiler.com/flash" xmlns:xlink="http://www.w3.org/1999/xlink" ffdec:objectType="shape" height="65.0px" width="59.2px" xmlns="http://www.w3.org/2000/svg">
  <g transform="matrix(1.0, 0.0, 0.0, 1.0, -10.4, -7.5)">
    <path d="M61.6 63.6 L61.6 43.8 40.35 48.7 40.35 70.0 61.6 63.6 M19.8 40.3 L19.8 61.25 38.35 70.05 38.35 48.5 19.8 40.3 M38.3 35.5 L34.05 35.85 40.0 46.75 58.9 42.4 38.3 35.5 M29.6 36.05 L14.95 29.6 19.5 38.0 37.2 45.8 32.65 37.4 29.9 36.2 29.6 36.2 29.6 36.05 M43.8 25.0 L39.8 33.9 62.05 41.35 66.75 31.9 43.8 25.0 M46.15 17.2 L49.7 19.15 51.65 22.7 53.6 19.15 57.2 17.2 53.6 15.25 51.65 11.7 49.7 15.25 46.15 17.2 M69.6 30.7 L63.6 42.8 63.6 65.1 38.95 72.5 17.8 62.5 17.8 39.05 10.4 25.35 30.25 34.15 37.75 33.55 42.75 22.6 50.6 25.0 48.25 20.6 42.0 17.2 48.25 13.8 51.65 7.5 55.1 13.8 61.35 17.2 55.1 20.6 52.4 25.5 69.6 30.7" fill="#b7b7b7" fill-rule="evenodd" stroke="none"/>
    <path d="M31.5 31.8 L28.05 25.55 21.8 22.1 28.05 18.7 31.5 12.45 34.9 18.7 41.2 22.1 34.9 25.55 31.5 31.8 M29.55 20.15 L26.0 22.1 29.55 24.05 31.5 27.65 33.45 24.05 37.0 22.1 33.45 20.15 31.5 16.6 29.55 20.15" fill="#b7b7b7" fill-rule="evenodd" stroke="none"/>
  </g>
</svg>
